<svg width="10" height="9" viewBox="0 0 10 9" fill="none" xmlns="http://www.w3.org/2000/svg">
    <path d="M9.24264 7.66726L6.06066 4.48528L9.24264 1.3033C9.53553 1.01041 9.53553 0.535532 9.24264 0.242641C8.94975 -0.0502506 8.47487 -0.0502507 8.18198 0.242641L5 3.42462L1.81802 0.242641C1.52513 -0.0502507 1.05025 -0.0502506 0.757359 0.242641C0.464468 0.535532 0.464468 1.01041 0.757359 1.3033L3.93934 4.48528L0.757359 7.66726C0.464468 7.96015 0.464468 8.43503 0.757359 8.72792C1.05025 9.02081 1.52513 9.02081 1.81802 8.72792L5 5.54594L8.18198 8.72792C8.47487 9.02081 8.94975 9.02081 9.24264 8.72792C9.53553 8.43503 9.53553 7.96015 9.24264 7.66726Z"
          fill="black"/>
</svg>