<svg width="17" height="17" viewBox="0 0 17 17" fill="none" xmlns="http://www.w3.org/2000/svg">
    <path d="M15.942 14.7968L12.8453 11.6987C15.1624 8.60222 14.5306 4.21356 11.4341 1.89641C8.33757 -0.420736 3.94891 0.211075 1.63176 3.30759C-0.685384 6.40411 -0.0535737 10.7928 3.04294 13.1099C5.53032 14.9712 8.94668 14.9712 11.4341 13.1099L14.5322 16.208C14.9215 16.5973 15.5527 16.5973 15.942 16.208C16.3313 15.8187 16.3313 15.1874 15.942 14.7982L15.942 14.7968ZM7.26433 12.512C4.5123 12.512 2.28136 10.281 2.28136 7.52898C2.28136 4.77695 4.5123 2.546 7.26433 2.546C10.0164 2.546 12.2473 4.77695 12.2473 7.52898C12.2444 10.2798 10.0152 12.509 7.26433 12.512Z"
          fill="#646E74"/>
</svg>